<svg xmlns="http://www.w3.org/2000/svg" viewBox="0 0 68.74 60.22"><defs><style>.cls-1{fill:#f8f3d4;}</style></defs><g id="Layer_2" data-name="Layer 2"><g id="Layer_1-2" data-name="Layer 1"><g id="aHlaSk.tif"><path class="cls-1" d="M50.32,26.08c0,.17.07.38.07.36L48.1,28.33,46.23,29.4l.13.28-1,.14.16.27c-3.31,1.8-6,4.52-9.51,6.06l-4.26,2.7.31.4a15.76,15.76,0,0,0-2.29.76A41.71,41.71,0,0,1,23.31,43a12.73,12.73,0,0,1-8-.18c-.36-.12-.74-.18-1.54-.36a18.35,18.35,0,0,0,1.09,4.12A46.36,46.36,0,0,0,18.15,51c1.48,2.09,3.74,3.14,5.84,4.38a9.46,9.46,0,0,0,2.45.77c2.58.67,5.17,1.3,7.74,2,.49.13.93.45,1.4.37l4.88.23.08.41a9.32,9.32,0,0,1-1.46.56,23.6,23.6,0,0,1-9.76.07c-1.7-.38-3.52-.22-5.27-.44a20.94,20.94,0,0,1-3.16-.81l-6.54-1.84c.1-.54.14-.78.19-1-2.9-.67-4.42-3-6.27-5.21-1.37,2.34-1.11,5.5-3.9,7.09l-1-1.87-1.22-.52C1.45,52.2.71,49.47.1,46.72a4.11,4.11,0,0,1,2.57-4.84,3.67,3.67,0,0,0,1.74-2.14,3.68,3.68,0,0,1,2.91-2.49C7.45,36,7.78,35,9,34.92c2.33-2.55,3.38-6.1,7.16-6.71l3.14-2.48.35-1.12h1.75l.3-1.28L24.29,22l.28.3,1.91-3.4c1.69.91,2.3-1,3.44-1.85H31l1-1.67.47.73.75-.51a1.29,1.29,0,0,1,0-.42c.11-.52.06-1.29.39-1.51,1.66-1.12,3.43-2.1,5.16-3.14l1.15.21c1-2.37,3.09-3.28,5.55-4C46.66,5.12,49,5.45,50.86,4.2c0-.14.09-.49.16-.84,1-.33,1.95-.59,2.87-1a16.06,16.06,0,0,0,2.6-1.35c2.64-.21,5.16-1.52,8-.87,3.28.75,4.34,2.09,4.27,5.49,0,2.44-1.32,4.11-2.77,5.79-.81.95-1.54,2-2.37,2.89S62,16,61.13,16.8s-1.7,1.57-2.58,2.33a7.32,7.32,0,0,1-1,.59l.19.67L54.55,23l.19.24ZM58.5,2.42c-.73.46-1.24.75-1.72,1.09-2,1.43-4,3-6.53,3.45A2.33,2.33,0,0,0,48.74,8a1.56,1.56,0,0,1-2.09,1l-3.43,2.75.16.23-1.16-.07L31,20.86l1.23.46-.27.32-1.34-.79c-.26.82-.51,1.57-.81,2.5l-1.34-.46c-1.16,1.22-2.41,2.36-3.43,3.67s-2,3-2.94,4.47l.22.14c-.67.88-1.35,1.75-2.06,2.67l.59.73-.72.58c1.23.81,4.8,1,7.89.32l-.19-.68,4.38-2.3-.1-.23,1.08.06.4-1,.23.32A93.37,93.37,0,0,0,42.09,27C43.8,25.85,45,24,46.9,22.9a18.27,18.27,0,0,0,2.34-1.69C50.62,20.1,52,19,53.44,17.77c0,0-.09-.25-.11-.33,1.72-1.61,3.4-3,4.91-4.62,2.18-2.27,4.3-4.61,6.33-7,1-1.23.44-2.41-1.22-2.56-1.17-.1-2.35,0-3.61,0Z"/></g></g></g></svg>