<svg xmlns="http://www.w3.org/2000/svg" viewBox="0 0 513.39 131.1"><defs><style>.cls-1{fill:#f8f3d4;}</style></defs><g id="Layer_2" data-name="Layer 2"><g id="Layer_1-2" data-name="Layer 1"><g id="aHlaSk.tif"><path class="cls-1" d="M0,57.44,1,58c1.37-.61,2.81-1.09,2.34-3.19a4,4,0,0,1,.54.28,4,4,0,0,1,.46.47C10.46,49.47,17.85,45.16,25,40.2l.21.91-3.11,4-1.22-.17c-1.82,1.77-2.71,4.18-5.14,5.24l.24.61L14.77,53c.31.46.7.79.75,1.17a1.57,1.57,0,0,1-.43,1.14c-.63.63-1.36,1.17-1.88,1.61l.49,2.16,1.15-.35v2.21l.82,1.37a67.66,67.66,0,0,0,6.25,3.45c1.2.52,2.7.37,4.06.53l3,.39a8.68,8.68,0,0,1,1,.23l1-1.07L31.38,67c2,.55,2.9-1.32,4.38-1.84,2.73.39,5.45-.58,6.64-2.23,4.4-1.79,6.45-5.84,9.53-8.84l-.48-.72,1.88-1.48-.18-.13,4.15-5.85c1.37-.81,1.27-2.85,2.19-4.29a39.2,39.2,0,0,1,3.17-3.85v-1.6l1.35-2L63.82,34l1-.65-.26-.56c2-3.54,3.24-7.39,6.5-10.15l-.88-.26,6.37-10.78.14.08L78,9l.77-.22-.21-.19,2.2-2.68-.18-.06,2.47-4.42,3-.33L84.66.05A8.87,8.87,0,0,1,92.27,3a43.45,43.45,0,0,1,4.64,5.26,20.77,20.77,0,0,1,2.42,5.49,5.11,5.11,0,0,1-2.41,5.67,2.67,2.67,0,0,1-4.19-1.45,22.39,22.39,0,0,1-1-2.83,4.77,4.77,0,0,1,0-2c.41-1.81-.2-3-2.6-4.61a9.19,9.19,0,0,0-4.93,3.61A53.5,53.5,0,0,0,80.68,17c-1,1.63-1.82,3.42-2.82,5.07a17.16,17.16,0,0,1-2.14,2.67,6.47,6.47,0,0,1-1.38.91l.32.42,1,.45L74,27l.73.89-2,2.27.09,1c-1.82.35-1.7,1.94-2.19,3.25l-.73,0,.3,2.4L68,37.87l1.1.48-3,2.2,1.18.66-3,5L63,46.48l1.39.7-3.69,5.63.43.78a9.6,9.6,0,0,0-1.05.88,5.07,5.07,0,0,0-.52,1l-1.06,1.63.21.16-.57.18a5.13,5.13,0,0,1-.5,1.59,4.66,4.66,0,0,1-1.34.89l.34,1.18-3,2.28.3.35V65l-2,1.4.44,1-3.09,2.29.22.13c-.93,1.29-1.89,2.56-2.77,3.88a6,6,0,0,0-.53,1.38l-2.38,2.18.1.13-1.07.44.2.37-7.17,4-.23-.3L35.14,83a61.41,61.41,0,0,1-7.42-.42,33.88,33.88,0,0,1-5.72-2c-.12,0-.25-.21-.33-.18-2.25.88-3.51-1.2-5.32-1.74l-.44-1.57-1.66,1.4c.79-1.93-1.12-1.7-1.53-2.69l.07-1.44c-1.38-.82-3.39-.87-3.48-3-2-.77-2.66-2.42-3.24-3.86L1.43,61.15C2,59.65,1.09,58.63,0,57.7Z"/><path class="cls-1" d="M261.05,43.78a21.14,21.14,0,0,0-7.4,2.54c-1.65,1-3.41,1.8-5.09,2.76-1.19.68-2.29,1.5-3.47,2.21-.74.46-1.54.83-2.65,1.42-.46,1.56-2.26,1.93-4.09,2.79l.54-1.72c-1.5.46-1.41,1.65-1.57,2.69l-4.08,3,.13.17-3,1.11c-.31.91-.52,2-2,1.42l-7.22,10-2.09,1.54.76.62-2.08,2.2v1A19.13,19.13,0,0,0,216,79.69c-.73,1.24-1.27,2.6-2,3.86s-1.7,2.59-2.45,3.94-1.88,1-3.4.84c.48-1.73.92-3.32,1.37-4.9a6.81,6.81,0,0,1,.42-1.2c.51-1,1.06-2,1.59-3h.5l-.53-.26c.91-3.09,3.38-5.49,3.45-9-.48.11-1,.07-1.24.32-1.88,2-4.36,2.83-7.07,3.38-2.36-.77-3.79-2.25-2.12-8.7L208,68.05c1-.24,2.25-.49,3.5-.89,2.41-.77,4.8-1.64,7.21-2.47A5.59,5.59,0,0,0,221.82,62c.92-1.67,1.86-3.33,2.86-5.11l-1.37.39,5-6.33,0,0c.68-1,1.4-1.94,2-2.95A4.19,4.19,0,0,0,231,46.3a3.07,3.07,0,0,1,2.26-2.55c1.64,1.17,4.53.6,5.14,3.7-2.07.59-2.18,2.38-2.81,4A17.27,17.27,0,0,1,233,55.1a3.11,3.11,0,0,1-.7.52l.31.4L236,53.88l-.08-.28,1.47.23a2.91,2.91,0,0,1,2.47-1.74c.39-.07.75-.59,1-1a8,8,0,0,0,.66-1.06l1.55-.4,0-.17,2.09.33-1-1,1.95-.87v-.5c2.06-1.05,4.05-2.09,6.07-3.07s4.11-2,6.2-2.87c1.58-.7,3.21-1.31,4.65-1.89,1,.59,1.73,1.11,2.53,1.51a1.64,1.64,0,0,1,1,1.9,7.81,7.81,0,0,1-2.61,5.4,3.35,3.35,0,0,0-.49.75c-1,1.42-1.94,2.83-2.88,4.27a3.62,3.62,0,0,0-.31.95L258.94,56h0c-.83,1.17-1.67,2.34-2.5,3.52l-.17-.14-.31,1.3-1.06.46-1,2.13-1.94.75a21.53,21.53,0,0,0,2.35,1.48c2.39,1.12,2.78,3.27,2.91,5.52.09,1.39,0,2.78,0,4.16.06,3.18,1.76,4.89,4.73,4.65,2.75-.23,5.49-.63,8.23-1a4,4,0,0,0,1.12-.59l-.37-.21c.73-2,1.45-4,1.95-5.38,1.33-1.65,2.27-2.78,3.17-3.94,1.24-1.59,2.36-3.22,4.37-4.06,1.2-.5,2.15-1.63,3.13-1.45,3.78,1.75,6,4.26,7.05,7.83,0,.56-.07,1.12-.12,1.94,2.54.52,4.54,1.94,4.89,4.65.17,1.27-.46,2.65-.73,4a4.89,4.89,0,0,1-4.24-3.57,14.78,14.78,0,0,0-1.73-2.64l-5.08,1.38,0,.14h-1.31l-1.55,1.38c-1.38.89-2.74,1.86-4.19,2.66a5.27,5.27,0,0,1-2.05.39c-.46,0-1-.19-1.42-.11-2.57.44-5.12,1.14-7.71,1.35-1.47.12-3.22.42-4.2-.6L255,80.78l-2-1.59a29.1,29.1,0,0,1-1.42-4.13,33,33,0,0,1-.29-4.62l-2.49-1.25a4.82,4.82,0,0,0-3.44,3.66L243.22,74l-4.29,5.71.23.21-1.23.15c-1.44,1.82-1.44,1.82-2.49,1.64l.11-.59-2.14.49-.47-3.1.19,0-1.3-2.72h1.44l-.34-1.91,6.35-4.34-.23-.19,3.8-3.93.14.13,5.18-5.34.2.14.09-.81L252,56a1.6,1.6,0,0,1,1.46-1.65c.5-.09.79-1.13,1.22-1.71s.81-.94,1.22-1.4l5.49-7.1ZM285,67.47c-1.68.16-5.68,5.14-5.73,7.24L285,72.9Z"/><path class="cls-1" d="M385.5,52.67l.08.37-2.3,1.89L381.42,56l.13.29-1,.13.17.27c-3.31,1.81-6,4.52-9.51,6.06l-4.26,2.7.31.41a15.76,15.76,0,0,0-2.29.76,42.79,42.79,0,0,1-6.46,2.94,12.77,12.77,0,0,1-8-.18c-.36-.12-.74-.18-1.54-.37a17.93,17.93,0,0,0,1.09,4.13,50.88,50.88,0,0,0,3.26,4.43c1.49,2.08,3.74,3.14,5.85,4.38a9.72,9.72,0,0,0,2.45.76c2.58.67,5.17,1.31,7.74,2,.49.13.93.45,1.4.37l4.88.23.08.41a8.18,8.18,0,0,1-1.47.55,23.55,23.55,0,0,1-9.75.08c-1.7-.38-3.52-.23-5.28-.44a21.13,21.13,0,0,1-3.15-.81l-6.54-1.84c.1-.55.14-.78.19-1-2.9-.66-4.42-3-6.27-5.2-1.38,2.33-1.12,5.49-3.91,7.09l-.95-1.87-1.22-.52c-.74-2.94-1.48-5.66-2.09-8.41a4.11,4.11,0,0,1,2.57-4.85,3.61,3.61,0,0,0,1.74-2.14,3.68,3.68,0,0,1,2.91-2.49c.13-1.2.46-2.25,1.63-2.33,2.33-2.55,3.38-6.1,7.16-6.71,1-.79,2-1.56,3.13-2.48l.36-1.11h1.74l.31-1.29,2.64-1.31.28.3,1.91-3.41c1.69.92,2.29-1,3.44-1.84h1.08c.3-.52.62-1,1-1.67l.47.73.75-.51a1.3,1.3,0,0,1,0-.42c.11-.52.06-1.29.38-1.51,1.67-1.13,3.44-2.11,5.17-3.14l1.15.21c1-2.38,3.09-3.29,5.55-4,1.22-1.61,3.58-1.29,5.42-2.53,0-.14.09-.49.15-.85,1-.32,2-.59,2.88-.95a16.12,16.12,0,0,0,2.6-1.36c2.64-.2,5.16-1.51,8-.87,3.27.75,4.34,2.1,4.27,5.5-.05,2.44-1.32,4.11-2.77,5.79-.81.94-1.54,2-2.37,2.89s-1.63,1.65-2.47,2.45-1.7,1.57-2.58,2.33a7.32,7.32,0,0,1-1,.59l.18.66-3.16,2.63.19.24ZM393.68,29c-.72.45-1.23.75-1.72,1.09-2,1.42-4,3-6.52,3.44a2.32,2.32,0,0,0-1.51,1.08,1.55,1.55,0,0,1-2.09,1l-3.43,2.76.15.23-1.15-.08L366.2,47.46l1.23.45-.27.32-1.34-.78c-.27.82-.51,1.57-.81,2.5l-1.34-.46c-1.16,1.22-2.41,2.35-3.43,3.66s-2,3-2.94,4.48l.22.14-2.06,2.66.59.74-.73.57c1.23.81,4.81.95,7.9.33l-.19-.68,4.38-2.3-.1-.23,1.08.06.4-1,.23.32a88.54,88.54,0,0,0,8.26-4.61c1.71-1.18,2.92-3,4.81-4.12a18.25,18.25,0,0,0,2.33-1.7c1.39-1.1,2.75-2.24,4.21-3.44l-.12-.33c1.73-1.6,3.4-3,4.92-4.61,2.18-2.28,4.3-4.61,6.33-7,1-1.24.44-2.42-1.22-2.56-1.17-.1-2.36,0-3.61,0Z"/><path class="cls-1" d="M88,51.9l-.89-.27c1.87-1,3.48.51,5.25.61,2.93.17,3.28,2.75,4.34,4.66.42.75.77,1.54,1.24,2.47-.8,1.73-1.14,3.87-3.68,4.4A9.13,9.13,0,0,0,92,64.93l.16.4,3.6-.79c.76.31,1.69.66,2.59,1.08,1.9.88,2.62,3.45,1.65,5.83a8.43,8.43,0,0,0-.34,1c-.46,1.91-.83,3.85-1.39,5.72a13.79,13.79,0,0,1-1.3,2.2c-.7,1.31-1.36,2.66-2,4-1.1.1-.42,1.1-.69,2l-4.33-.24c-.12-1.69-.56-3.31-.27-4.79.57-2.91,1.55-5.73,2.35-8.6a3.06,3.06,0,0,0,.1-1.31c-2.82,1.38-4.68,4-7.35,5.36l.4,1.7-8.32,6.56-1.6.75-4.55-.91a7.76,7.76,0,0,1-1.45-6.45,46.39,46.39,0,0,1,2-7,3.25,3.25,0,0,1,.46-.91c1.64-2.08,3.3-4.13,4.94-6.21,1.13-1.43,2.15-3,3.37-4.32,1.52-1.68,3.15-3.27,4.81-4.82.92-.86,2.32-1.27,2.41-2.84C87.23,52.25,87.54,52.16,88,51.9Zm-10.55,24,.3.33c1.21-.74,2.46-1.43,3.63-2.24s2.12-1.62,3.14-2.47c2.26-1.89,4.5-3.8,7-5.89-2-.54-3.31,1.28-5.13.24l3.34-2.59c.11-1.44.21-2.67.31-4l-1.45-.46-3,1.56.18.19-2,1.84-.2-.13-.45,2.18.28.16-2.5,1.85.44.69L79.42,69l1.27.48c-1.57.73-2.06,1.62-1.84,2.37Z"/><path class="cls-1" d="M474.71,98.45c-.19-2.12,1.27-7,2.42-8.25l-.31-.19c1.05-1.74,2.08-3.49,3.17-5.2,1-1.51,2-3,3-4.45a11.1,11.1,0,0,1,1.06-1.12c1.26-1.32,2.51-2.64,3.66-4.08,2.15-1.43,3.62-3.12,3.67-4.68-.4,0-.92-.09-1.15.11-2.08,1.85-4.07,3.8-6.17,5.62-1.61,1.4-3.43,2.55-5,4a20.85,20.85,0,0,1-7.37,4.31c-1.74.61-3.83.37-5.75.25-.59,0-1.12-.93-1.66-1.45a15.64,15.64,0,0,0-1.25-1.18,7.09,7.09,0,0,1,.9-6.54,23.56,23.56,0,0,1,2.74-4.33A38.34,38.34,0,0,1,472,67.15a21,21,0,0,1,2.69-1.4l-.13-.37L477,64.9l-.11,1,1.53.21c.88.85,1.56,1.5,2.45,2.34a11.39,11.39,0,0,1-2,1.38c-1.61.68-3.27,1.28-4.93,1.83-2.87.94-6,4.35-6.09,6.81.74,1.21,1.95,1.08,3,.7a30.73,30.73,0,0,0,9.83-5.6,13.09,13.09,0,0,1,2.68-1.47l1.9-2.06,1,.53,2.07-2.3c1.14-.05,2-.7,1.89-1.57l1-.88.78-.74,3.56-1.69.46-.91,8.77-6.59.29.5c1.87-1.92,3.24-4.37,5.7-5.33l2.36,1c.06.68.14,1.51.21,2.24-4.21,4.59-9,8.48-12.84,13.29-1,1.1-2,2.21-3.06,3.31-2.16,2.31-4.39,4.56-6.47,6.94-1.78,2-3.42,4.17-5.07,6.31-1.48,1.93-2.67,4.14-4.39,5.81s-2.55,3.79-3.67,5.76c-.38.65-.57,1.41-1,2A1.64,1.64,0,0,1,474.71,98.45Z"/><path class="cls-1" d="M444.64,76.85c-.21,1.21-.18,2.37-1.92,2.46l.76.65v3c2.28,2,4.79,1.68,7.57,1.29A10.29,10.29,0,0,1,443.52,87h-2l-.12-.94-1.18-.33-1-1.91c.07-6.61,4.46-11.35,8.06-16.54-5.06,2.4-8.38,7.09-13,10.12-1.54,1-3.11,1.93-4.61,3-1.9,1.31-3.74,2.7-6,4.36-1.27.14-2.33-1.16-3-2.36s-1.22-3,.19-4.54c1.18-1.33,1.77-3.22,3-4.49a63.33,63.33,0,0,1,5.62-4.65l.19.28,2.32.65,3.77,2.89c1.8-.42,3.33-1.72,4.92-3,1.87-1.45,3.78-2.85,5.69-4.24,1.54-1.11,3.17-2.1,4.67-3.26,1.66-1.28,3.17-2.76,4.83-4a27.73,27.73,0,0,0,5.9-5.6c.38-.54,1.16-.78,2-1.34l.32-.59h1l1.69,1,.14-.15,1.65,2.52c-4.18,5.4-10,8.8-14.68,13.51l-2.07,2c-.89.83-1.85,1.62-2.68,2.51C447.59,73.5,446.08,75.24,444.64,76.85Z"/><path class="cls-1" d="M109,84.71l-1-2.36-.35-.21V80.81l1.54-2.5.08.07,3.84-4.9,1.59-2.87.94-.11.3-1.21.13.11,4.75-6.21h2.7l1.16,1.35a18.54,18.54,0,0,1,3.48,1.37A3.26,3.26,0,0,1,129.31,68a29.72,29.72,0,0,1,.05,4.14c1.14-.5,2.19-.93,3.22-1.4a7.91,7.91,0,0,1,5-.25c2.27.45,3,2.24,3.48,4.19a15.46,15.46,0,0,1,.31,2.15,24,24,0,0,0,.28,2.83,5.4,5.4,0,0,0,1,1.49l.51-.09-.52,1.45-4.6-.59c-2.07-2.26-1.55-5.72-3.33-8.42-1.86,1.45-3.62,2.78-5.33,4.17s-3.38,2.88-5.06,4.31l-1.19-.6-.93.87c-1.4-1.25-2.36-3.85-1.55-5.63a43.14,43.14,0,0,0,1.64-5.05l-.36-.17-8.35,10.94.14.07-1.9,3.29Z"/><path class="cls-1" d="M182.29,75.58l.35.38c2-1.32,3.93-2.65,5-5,3.73-1.62,6.61,0,8.69,2.59.79,1,1,2.45,1.36,3.72a10.18,10.18,0,0,0,5.12,6.32l3.4-1.33c-.59.82-1.06,1.6-1.64,2.28-1.07,1.25-3.58,1.2-5.26,0a18,18,0,0,1-6.19-8.58c-.13-.35-.31-.68-.66-1.44-1.27,1.36-2.44,2.45-3.43,3.69-1.22,1.54-2.24,3.23-3.44,4.78a14.73,14.73,0,0,1-2.19,1.79l-1.74-7.09-.68-.1c-2.39,1.65-5.43,1.75-7.47,4-2.08,1-4.32,2.09-6.63,3a3,3,0,0,1-2.2-.18,26.29,26.29,0,0,1-2.83-2c-.45-.32-.95-.56-1.63-1l-1.56,2.69-4.4.68c-1.74-2.32-1.21-6.78.82-8.64,1.25-1.15,2.26-2.56,3.44-3.81.67-.71,1.45-1.31,2.15-1.93l3.72.4c.07,1.84,2.59,3.75-.37,5.64l-1.26.38C164.48,78,166,79,167.63,79.9a2.45,2.45,0,0,0,1.75,0C173.64,78.52,177.89,77.07,182.29,75.58Z"/><path class="cls-1" d="M400.34,72.74c-.56,2.37-1,4.43-1.6,6.82,5.32.57,10.22,2,15.37.92l-.48,1.45-16.18,4.22c-4.62-1.63-4.72-5.13-4.61-9.12-1.52,1.14-2.77,2-3.93,3s-2.41,2.21-3.65,3.27a2.33,2.33,0,0,1-3.18.31A7.19,7.19,0,0,0,380,83a5.64,5.64,0,0,1-.29-5c1.31-2.79,2.62-5.59,4.08-8.31.76-1.42,1.83-2.67,2.61-4.26l1.78-.26c0,.55.05.92.07,1.36l1.17-.2,2.81,2.57c.11.47.25,1,.44,1.87l-2.07.26-.26-.3-1.21,2.19.34.35,5.31-2.9a3.81,3.81,0,0,1,4.49,1C399.67,71.94,400.09,72.44,400.34,72.74Z"/></g><path class="cls-1" d="M81.87,125.48l-2.31,5.29H77.94l7-15.72h1.73l7.19,15.72H92.14l-2.4-5.29Zm7.3-1.38c-2.12-4.66-3.11-6.81-3.47-7.82h0c-.31,1-1.49,3.79-3.24,7.82Z"/><path class="cls-1" d="M99.2,116.43H93v-1.38h13.93v1.38h-6.19v14.34H99.2Z"/><path class="cls-1" d="M121.16,115.05h1.53v6.55h10.43v-6.55h1.53v15.72h-1.53V123H122.69v7.79h-1.53Z"/><path class="cls-1" d="M155.59,122.86c0,4.48-3.05,8.24-8.12,8.24a8.19,8.19,0,1,1,8.12-8.24Zm-14.66-.08c0,3.56,2.3,6.94,6.56,6.94s6.48-3,6.48-6.81a6.52,6.52,0,0,0-6.62-6.81A6.36,6.36,0,0,0,140.93,122.78Z"/><path class="cls-1" d="M175.37,123.67c0-3,0-5.87.09-7.45h0c-.77,2.14-4,9.3-6.46,14.55h-1.3c-1.8-4.12-5.37-12.26-6.24-14.53h0c.16,1.79.21,5.23.21,7.87v6.66h-1.46V115.05h2.17c2.41,5.27,5.63,12.65,6.09,13.8h0c.78-1.72,4-8.93,6.24-13.8h2.21v15.72h-1.51Z"/><path class="cls-1" d="M193.78,123.15h-9.71v6.26h10.68l-.24,1.36h-12V115.05h11.74v1.36H184.07v5.38h9.71Z"/><path class="cls-1" d="M213,130.77l-5.05-15.72h1.62c1.26,4,4,12.38,4.31,14.14h0c.38-1.93,3.24-10.26,4.56-14.14h1.61c1.17,3.56,4.13,12.63,4.42,14.11h0c.52-2.13,3.35-10.36,4.66-14.11h1.55l-5.42,15.72H223.6c-1.18-3.62-4.08-12.38-4.42-14.06h0c-.36,1.72-3.17,10-4.55,14.06Z"/><path class="cls-1" d="M235.94,115.05v15.72h-1.52V115.05Z"/><path class="cls-1" d="M245.72,116.43h-6.19v-1.38h13.93v1.38h-6.19v14.34h-1.55Z"/><path class="cls-1" d="M257,115.05h1.53v6.55H269v-6.55h1.53v15.72H269V123H258.56v7.79H257Z"/><path class="cls-1" d="M291,116.43h-6.19v-1.38h13.92v1.38H292.5v14.34H291Z"/><path class="cls-1" d="M302.27,115.05h1.52v6.55h10.44v-6.55h1.52v15.72h-1.52V123H303.79v7.79h-1.52Z"/><path class="cls-1" d="M332.66,123.15H323v6.26h10.68l-.24,1.36h-12V115.05h11.74v1.36H323v5.38h9.71Z"/><path class="cls-1" d="M350,123.68v7.09H348.5V115.05h7.05c3,0,5.23,1.34,5.23,4.17a3.53,3.53,0,0,1-2.93,3.76c1.2.3,2.51,1.16,2.51,3.88v.65a16.28,16.28,0,0,0,.18,3.26H359a13.52,13.52,0,0,1-.17-3.16v-.53c0-2.64-1-3.4-4-3.4Zm0-1.36h5.09c2.72,0,4.1-.95,4.1-3.06,0-1.92-1.38-2.84-4-2.84H350Z"/><path class="cls-1" d="M367,115.05v9c0,4.46,2.71,5.72,5.29,5.72,3.24,0,5.13-1.57,5.13-5.72v-9h1.52v8.86c0,5.26-2.66,7.19-6.72,7.19s-6.75-2.07-6.75-7v-9.07Z"/><path class="cls-1" d="M384.47,115.05h6.18c5,0,8,3.25,8,7.61,0,5-3.47,8.11-8,8.11h-6.15ZM386,129.41h4.21c4.63,0,6.79-3,6.79-6.7,0-3.95-2.71-6.3-6.57-6.31H386Z"/><path class="cls-1" d="M403.18,115.05h6.18c5,0,8,3.25,8,7.61a7.67,7.67,0,0,1-8,8.11h-6.15Zm1.53,14.36h4.2c4.64,0,6.79-3,6.79-6.7,0-3.95-2.71-6.3-6.56-6.31h-4.43Z"/><path class="cls-1" d="M422.26,126.26c.62,2,2.08,3.52,5.39,3.52s4.76-1.4,4.76-3.06-.92-2.84-5.3-3.58-5.6-2.1-5.6-4.25c0-2.6,2.45-4.17,5.75-4.17,5,0,6.08,2.63,6.25,4.12H432c-.37-1.2-1.09-2.78-4.72-2.78-2.45,0-4.15.86-4.15,2.68,0,1.45.64,2.41,4.48,3,5.54.92,6.45,2.66,6.45,4.79,0,2.41-1.94,4.53-6.43,4.53-4.16,0-6.38-1.92-6.91-4.84Z"/></g></g></svg>