<svg xmlns="http://www.w3.org/2000/svg" viewBox="0 0 218.14 55.7"><defs><style>.cls-1{fill:#0e2639;}</style></defs><g id="Layer_2" data-name="Layer 2"><g id="Layer_1-2" data-name="Layer 1"><g id="aHlaSk.tif"><path class="cls-1" d="M0,24.41l.42.22c.59-.26,1.2-.46,1-1.35l.23.11s.07.08.19.2c2.61-2.57,5.75-4.4,8.76-6.51.06.26.1.39.09.39L9.37,19.15l-.52-.07c-.77.75-1.15,1.77-2.18,2.22l.1.26-.49,1c.13.19.29.33.31.49a.65.65,0,0,1-.18.49,8.83,8.83,0,0,1-.8.68l.21.92.49-.15v.94l.35.58a27.17,27.17,0,0,0,2.65,1.47,6.51,6.51,0,0,0,1.73.23l1.25.16a2.86,2.86,0,0,1,.42.1l.43-.46.19.49c.85.23,1.24-.56,1.87-.78a3,3,0,0,0,2.81-1c1.88-.76,2.75-2.48,4-3.76l-.2-.3.8-.63L22.58,22l1.77-2.48c.58-.35.54-1.21.93-1.82A16.11,16.11,0,0,1,26.62,16v-.68l.58-.85-.08-.07.41-.27-.11-.24c.86-1.5,1.38-3.14,2.76-4.31l-.37-.11,2.71-4.58.06,0,.57-1.12.33-.1-.09-.07.93-1.15-.07,0,1-1.88,1.3-.14L36,0a3.79,3.79,0,0,1,3.24,1.24,18.83,18.83,0,0,1,2,2.23,8.57,8.57,0,0,1,1,2.34,2.16,2.16,0,0,1-1,2.41,1.14,1.14,0,0,1-1.78-.62,8.89,8.89,0,0,1-.4-1.2,2,2,0,0,1,0-.85c.17-.77-.09-1.28-1.1-2a3.9,3.9,0,0,0-2.1,1.54,22.18,22.18,0,0,0-1.51,2.09c-.44.69-.77,1.45-1.2,2.15a7.11,7.11,0,0,1-.91,1.14,2.94,2.94,0,0,1-.58.39l.13.18.41.18-.67.17.31.38-.86,1,0,.43c-.78.15-.72.82-.94,1.38H29.7l.13,1-.95.46.47.21-1.27.93.5.28-1.25,2.13-.57.11.59.3-1.57,2.39.18.33a5.07,5.07,0,0,0-.44.37,1.8,1.8,0,0,0-.22.44l-.46.69.1.07-.25.08a2.12,2.12,0,0,1-.21.67,2.35,2.35,0,0,1-.57.38l.14.5-1.27,1,.13.15v.54l-.86.59.18.43-1.31,1,.09.05c-.39.55-.8,1.09-1.18,1.65a2.89,2.89,0,0,0-.22.59l-1,.93,0,0-.45.19.08.15-3,1.7-.09-.13-.2.46a25.48,25.48,0,0,1-3.15-.18,14.61,14.61,0,0,1-2.43-.85s-.11-.09-.14-.08c-1,.38-1.49-.51-2.26-.74l-.19-.67-.71.6c.34-.82-.47-.72-.64-1.15l0-.61C4.85,31.24,4,31.21,4,30.31a2.54,2.54,0,0,1-1.38-1.64L.61,26c.22-.63-.15-1.07-.61-1.46Z"/><path class="cls-1" d="M110.92,18.6a9.09,9.09,0,0,0-3.14,1.08c-.71.42-1.45.76-2.16,1.17-.51.29-1,.64-1.48.95-.32.19-.66.35-1.13.6-.19.66-1,.82-1.73,1.18l.23-.73c-.64.2-.6.7-.67,1.14L99.1,25.28l.06.07-1.29.48c-.13.38-.22.84-.84.6L94,30.67l-.89.66.32.26-.88.94v.4a8.27,8.27,0,0,0-.75.93c-.31.53-.54,1.11-.84,1.64s-.73,1.1-1.05,1.67-.8.45-1.44.36c.2-.73.39-1.41.58-2.08a3.09,3.09,0,0,1,.18-.51c.22-.43.45-.85.67-1.27h.22l-.23-.11c.39-1.31,1.44-2.33,1.47-3.84-.2.05-.43,0-.53.14a5.2,5.2,0,0,1-3,1.44c-1-.33-1.61-1-.9-3.7l1.46,1.32c.41-.11,1-.21,1.49-.38,1-.33,2-.7,3.06-1.05a2.39,2.39,0,0,0,1.34-1.16c.39-.71.79-1.42,1.22-2.17l-.59.16L97,21.64h0c.29-.42.6-.83.87-1.26a1.71,1.71,0,0,0,.29-.7,1.31,1.31,0,0,1,1-1.08c.69.5,1.92.25,2.18,1.57-.88.25-.93,1-1.19,1.69A7.48,7.48,0,0,1,99,23.41a1.06,1.06,0,0,1-.29.22l.13.17,1.43-.91,0-.11.63.09a1.24,1.24,0,0,1,1-.74c.17,0,.32-.25.44-.4a4.66,4.66,0,0,0,.29-.45l.65-.17,0-.08.89.14-.41-.42.83-.37v-.22c.88-.44,1.72-.88,2.58-1.3s1.75-.83,2.63-1.22c.68-.29,1.37-.55,2-.8.42.25.73.47,1.08.64a.71.71,0,0,1,.42.81,3.36,3.36,0,0,1-1.11,2.29,1.36,1.36,0,0,0-.21.32c-.41.61-.83,1.2-1.22,1.82a1.37,1.37,0,0,0-.14.4l-.56.69h0l-1.07,1.5-.07-.06-.13.55-.45.2-.42.9-.82.32a11,11,0,0,0,1,.63,2.39,2.39,0,0,1,1.24,2.35c0,.58,0,1.17,0,1.76,0,1.35.75,2.08,2,2s2.33-.27,3.5-.43a1.58,1.58,0,0,0,.48-.25l-.16-.09.83-2.29c.56-.69,1-1.18,1.34-1.67a4.82,4.82,0,0,1,1.86-1.72c.51-.22.91-.69,1.33-.62a5.09,5.09,0,0,1,3,3.33l-.06.82a2.33,2.33,0,0,1,2.08,2,5.34,5.34,0,0,1-.31,1.68,2.08,2.08,0,0,1-1.8-1.52,6.92,6.92,0,0,0-.73-1.12l-2.16.59v.06H120l-.66.59c-.59.37-1.17.78-1.78,1.12a2.29,2.29,0,0,1-.87.17c-.2,0-.41-.08-.61,0-1.09.19-2.17.49-3.27.58-.63,0-1.37.17-1.79-.26l-2.63-.52-.85-.67a11.63,11.63,0,0,1-.6-1.76,13.08,13.08,0,0,1-.13-2l-1-.53A2,2,0,0,0,104.26,31l-.92.49-1.82,2.42.1.09-.52.07c-.62.77-.62.77-1.06.69l0-.25-.9.21L99,33.36h.08l-.55-1.16h.61L99,31.4l2.7-1.84-.1-.08,1.62-1.67.06.05,2.2-2.27.08.06,0-.34,1.49-1.51a.68.68,0,0,1,.62-.7c.21,0,.34-.48.52-.72s.35-.4.52-.6l2.33-3ZM121.1,28.67c-.71.06-2.41,2.18-2.44,3.07L121.1,31Z"/><path class="cls-1" d="M163.8,22.38a1.54,1.54,0,0,1,0,.16l-1,.8-.8.45.06.12-.43.06.07.12c-1.41.76-2.56,1.91-4,2.57l-1.81,1.15L156,28a7.35,7.35,0,0,0-1,.32,18,18,0,0,1-2.75,1.25,5.35,5.35,0,0,1-3.38-.08c-.16,0-.32-.07-.66-.15a7.64,7.64,0,0,0,.47,1.75A19.29,19.29,0,0,0,150.13,33a7.33,7.33,0,0,0,2.48,1.87,4,4,0,0,0,1,.32c1.09.28,2.19.55,3.29.85.2,0,.39.19.59.16l2.07.09,0,.18a3.89,3.89,0,0,1-.62.23,9.84,9.84,0,0,1-4.15,0c-.72-.16-1.5-.09-2.24-.18a9.45,9.45,0,0,1-1.34-.35l-2.78-.78c0-.23.06-.33.08-.43-1.23-.28-1.88-1.28-2.66-2.21-.59,1-.48,2.33-1.66,3l-.41-.79-.52-.22c-.31-1.25-.62-2.41-.88-3.58a1.75,1.75,0,0,1,1.09-2.06,1.54,1.54,0,0,0,.74-.9,1.55,1.55,0,0,1,1.23-1.06c.06-.51.2-1,.7-1,1-1.09,1.43-2.59,3-2.85l1.33-1.06.15-.47h.74l.13-.55,1.12-.56.12.13.81-1.45c.72.39,1-.42,1.46-.78h.46l.43-.71.2.31.32-.22a.62.62,0,0,1,0-.18c0-.22,0-.54.17-.63.71-.48,1.46-.9,2.19-1.34l.49.09a3.25,3.25,0,0,1,2.36-1.71c.52-.68,1.52-.55,2.3-1.07l.07-.36c.42-.14.83-.25,1.22-.41a7.28,7.28,0,0,0,1.11-.57c1.12-.09,2.19-.65,3.39-.37,1.39.31,1.84.88,1.81,2.33a3.76,3.76,0,0,1-1.18,2.46c-.34.4-.65.84-1,1.23s-.7.7-1,1-.73.67-1.1,1a3.08,3.08,0,0,1-.43.25L167,20l-1.35,1.12.08.1Zm-8.36-2.22-.35,1.06-.57-.19c-.49.52-1,1-1.45,1.55s-.84,1.27-1.25,1.91l.09.05L151,25.68l.24.31-.3.25a5.81,5.81,0,0,0,3.35.13l-.08-.29,1.86-1,0-.1.46,0,.17-.42.1.13c1.17-.64,2.41-1.2,3.51-1.95a26.87,26.87,0,0,1,2-1.76,7.56,7.56,0,0,0,1-.72c.59-.47,1.17-.95,1.79-1.46,0,0,0-.1,0-.14.73-.68,1.44-1.29,2.09-2,.93-1,1.83-2,2.69-3,.44-.53.19-1-.52-1.09-.5,0-1,0-1.53,0l-.53-.34c-.31.19-.53.32-.73.46a7.1,7.1,0,0,1-2.78,1.47,1,1,0,0,0-.64.45.66.66,0,0,1-.89.42l-1.45,1.17.06.1-.49,0-4.76,3.79"/><path class="cls-1" d="M37.38,22.05,37,21.94c.79-.41,1.47.21,2.23.26,1.24.07,1.39,1.17,1.84,2,.18.32.33.65.53,1.05-.34.73-.49,1.64-1.56,1.87a3.67,3.67,0,0,0-.94.49l.07.17,1.53-.34c.32.14.71.28,1.1.46a1.89,1.89,0,0,1,.7,2.48,2.83,2.83,0,0,0-.14.41c-.2.81-.36,1.63-.6,2.43a6,6,0,0,1-.55.93c-.3.56-.57,1.13-.87,1.71-.46,0-.17.47-.29.86l-1.84-.1a7.92,7.92,0,0,1-.11-2c.24-1.24.65-2.44,1-3.66a1.41,1.41,0,0,0,0-.56c-1.2.59-2,1.69-3.13,2.28l.18.72-3.54,2.79-.68.32L30,36.08a3.36,3.36,0,0,1-.61-2.75,18.9,18.9,0,0,1,.85-3,1.29,1.29,0,0,1,.19-.39l2.1-2.64c.48-.61.91-1.26,1.43-1.83.65-.72,1.34-1.39,2-2.05.4-.37,1-.54,1-1.21C37.06,22.2,37.19,22.16,37.38,22.05ZM32.89,32.26l.13.14c.51-.32,1-.61,1.54-.95s.9-.69,1.34-1.05l3-2.51c-.83-.23-1.41.55-2.18.11l1.42-1.1.13-1.7L37.61,25l-1.26.66.07.08-.83.78-.09-.05-.19.92.12.07-1.06.79.19.29-.82.77.55.21c-.67.31-.88.69-.79,1Z"/><path class="cls-1" d="M201.7,41.83a6.89,6.89,0,0,1,1-3.5l-.13-.08c.45-.74.88-1.49,1.35-2.22s.85-1.26,1.29-1.88a5.11,5.11,0,0,1,.45-.48c.53-.56,1.07-1.12,1.55-1.73a3,3,0,0,0,1.56-2c-.17,0-.38,0-.48,0-.89.79-1.73,1.62-2.63,2.39-.68.59-1.45,1.08-2.11,1.7a8.87,8.87,0,0,1-3.13,1.83A6.46,6.46,0,0,1,198,36c-.24,0-.47-.39-.7-.62a6.36,6.36,0,0,0-.53-.5,3,3,0,0,1,.38-2.78,10.42,10.42,0,0,1,1.16-1.84,16.53,16.53,0,0,1,2.23-1.75,9.28,9.28,0,0,1,1.14-.59.65.65,0,0,0-.05-.16l1.06-.2,0,.43.65.09,1,1a5,5,0,0,1-.84.59c-.69.29-1.39.54-2.1.78a4.07,4.07,0,0,0-2.58,2.89.94.94,0,0,0,1.26.3,13.07,13.07,0,0,0,4.18-2.38,6.28,6.28,0,0,1,1.14-.63l.81-.87.44.22.87-1c.49,0,.87-.3.81-.67l.41-.38.33-.31,1.51-.72.2-.38,3.72-2.81.13.22c.79-.82,1.38-1.86,2.42-2.27l1,.43.09.95c-1.79,2-3.82,3.6-5.46,5.65-.43.47-.86.94-1.3,1.4-.91,1-1.86,1.94-2.75,2.95s-1.45,1.78-2.15,2.68a21.85,21.85,0,0,1-1.86,2.47,10,10,0,0,0-1.57,2.45c-.15.28-.24.6-.41.87A.7.7,0,0,1,201.7,41.83Z"/><path class="cls-1" d="M188.93,32.65c-.09.52-.08,1-.82,1.05l.32.28v1.28c1,.84,2,.71,3.22.55a4.35,4.35,0,0,1-3.2,1.16h-.85l0-.4-.51-.14-.41-.81c0-2.81,1.89-4.82,3.42-7-2.14,1-3.56,3-5.51,4.3-.65.42-1.32.82-2,1.26-.8.56-1.59,1.15-2.56,1.85-.53.07-1-.49-1.28-1a1.5,1.5,0,0,1,.08-1.93c.5-.56.75-1.36,1.27-1.9a26.7,26.7,0,0,1,2.39-2l.08.12,1,.28,1.6,1.22a5.68,5.68,0,0,0,2.09-1.25c.8-.62,1.61-1.21,2.42-1.8.65-.47,1.35-.89,2-1.39s1.35-1.17,2.06-1.72a11.76,11.76,0,0,0,2.5-2.38c.16-.23.5-.33.87-.57l.13-.25h.42l.72.42.06-.06.7,1.07c-1.77,2.3-4.26,3.74-6.23,5.74l-.88.83c-.38.35-.79.69-1.14,1.07C190.18,31.23,189.54,32,188.93,32.65Z"/><path class="cls-1" d="M46.31,36l-.43-1-.15-.09v-.56l.66-1.07,0,0,1.63-2.09L48.73,30l.4-.05.13-.51.05,0,2-2.64h1.14l.5.57a7.74,7.74,0,0,1,1.48.59,1.34,1.34,0,0,1,.49.88,12.73,12.73,0,0,1,0,1.76c.48-.21.93-.39,1.37-.59a3.29,3.29,0,0,1,2.1-.11c1,.19,1.28.95,1.48,1.78a7,7,0,0,1,.14.92,9.56,9.56,0,0,0,.11,1.2,2.43,2.43,0,0,0,.41.63l.22,0-.22.62-1.95-.25c-.88-1-.67-2.43-1.42-3.58-.79.62-1.54,1.18-2.27,1.77s-1.43,1.23-2.15,1.83l-.5-.25-.4.37a2.32,2.32,0,0,1-.66-2.39,17.41,17.41,0,0,0,.7-2.15l-.15-.07L48.23,35l.06,0-.81,1.39Z"/><path class="cls-1" d="M77.45,32.12l.15.16a5.2,5.2,0,0,0,2.13-2.13,2.93,2.93,0,0,1,3.69,1.1A4.65,4.65,0,0,1,84,32.83a4.3,4.3,0,0,0,2.18,2.68L87.62,35c-.25.35-.45.68-.7,1a1.77,1.77,0,0,1-2.23,0,7.63,7.63,0,0,1-2.63-3.65c-.06-.15-.14-.29-.28-.61-.54.57-1,1-1.46,1.57s-.95,1.37-1.46,2a6,6,0,0,1-.93.75l-.74-3-.29,0c-1,.7-2.31.74-3.18,1.72-.88.41-1.83.89-2.81,1.28a1.28,1.28,0,0,1-.94-.07,12.15,12.15,0,0,1-1.2-.87c-.19-.13-.4-.24-.69-.41l-.66,1.15L65.54,36a3.13,3.13,0,0,1,.35-3.68c.53-.49,1-1.08,1.47-1.61a11.61,11.61,0,0,1,.91-.82l1.58.17c0,.78,1.1,1.59-.16,2.39l-.53.16c.73.47,1.38.92,2.07,1.3A1,1,0,0,0,72,34Z"/><path class="cls-1" d="M170.1,30.91c-.23,1-.44,1.88-.68,2.89,2.27.25,4.35.84,6.54.39l-.21.62-6.87,1.8c-2-.7-2-2.18-2-3.88-.65.49-1.18.85-1.67,1.26s-1,.94-1.55,1.39a1,1,0,0,1-1.36.13,3,3,0,0,0-.87-.24,2.42,2.42,0,0,1-.12-2.12c.56-1.19,1.11-2.38,1.73-3.53.33-.61.78-1.14,1.11-1.82l.76-.1,0,.57.5-.08,1.19,1.09.19.79-.88.11-.11-.12-.52.93.15.15,2.26-1.24a1.62,1.62,0,0,1,1.9.45C169.82,30.57,170,30.78,170.1,30.91Z"/></g><path class="cls-1" d="M35.09,53.32l-1,2.24h-.69l2.95-6.67h.74l3.06,6.67h-.71l-1-2.24Zm3.1-.59c-.9-2-1.32-2.89-1.47-3.32h0c-.13.41-.63,1.61-1.38,3.32Z"/><path class="cls-1" d="M42.46,49.47H39.82v-.58h5.92v.58H43.11v6.09h-.65Z"/><path class="cls-1" d="M51.79,48.89h.65v2.78h4.43V48.89h.65v6.67h-.65V52.25H52.44v3.31h-.65Z"/><path class="cls-1" d="M66.42,52.21a3.46,3.46,0,1,1-6.92,0,3.46,3.46,0,0,1,6.92,0Zm-6.23,0A2.77,2.77,0,0,0,63,55.12a2.69,2.69,0,0,0,2.76-2.9,2.77,2.77,0,0,0-2.81-2.89A2.71,2.71,0,0,0,60.19,52.17Z"/><path class="cls-1" d="M74.82,52.55c0-1.29,0-2.5,0-3.17h0c-.33.91-1.72,4-2.75,6.18h-.55c-.76-1.74-2.28-5.21-2.65-6.17h0c.06.76.08,2.22.08,3.35v2.82h-.61V48.89h.92c1,2.23,2.39,5.37,2.58,5.86h0c.34-.73,1.72-3.8,2.65-5.86h.94v6.67h-.64Z"/><path class="cls-1" d="M82.64,52.33H78.52V55h4.54l-.1.58H77.87V48.89h5v.57H78.52v2.29h4.12Z"/><path class="cls-1" d="M90.8,55.56l-2.15-6.67h.69c.54,1.68,1.69,5.25,1.83,6h0c.17-.82,1.38-4.36,1.94-6h.69c.5,1.51,1.75,5.36,1.88,6h0c.22-.91,1.42-4.4,2-6h.65L96,55.56h-.72c-.5-1.53-1.73-5.25-1.87-6h0c-.16.73-1.35,4.24-1.94,6Z"/><path class="cls-1" d="M100.56,48.89v6.67h-.65V48.89Z"/><path class="cls-1" d="M104.71,49.47h-2.63v-.58H108v.58h-2.63v6.09h-.66Z"/><path class="cls-1" d="M109.52,48.89h.65v2.78h4.43V48.89h.65v6.67h-.65V52.25h-4.43v3.31h-.65Z"/><path class="cls-1" d="M123.93,49.47H121.3v-.58h5.92v.58h-2.63v6.09h-.66Z"/><path class="cls-1" d="M128.74,48.89h.65v2.78h4.43V48.89h.65v6.67h-.65V52.25h-4.43v3.31h-.65Z"/><path class="cls-1" d="M141.65,52.33h-4.12V55h4.54l-.11.58h-5.08V48.89h5v.57h-4.34v2.29h4.12Z"/><path class="cls-1" d="M149,52.55v3h-.65V48.89h3c1.29,0,2.22.56,2.22,1.77a1.49,1.49,0,0,1-1.24,1.59c.51.13,1.07.5,1.07,1.65v.28a6.68,6.68,0,0,0,.07,1.38h-.66a5.89,5.89,0,0,1-.07-1.34V54c0-1.12-.44-1.45-1.7-1.45Zm0-.58h2.16c1.16,0,1.75-.4,1.75-1.29s-.59-1.21-1.7-1.21H149Z"/><path class="cls-1" d="M156.23,48.89v3.8a2.12,2.12,0,0,0,2.25,2.43c1.38,0,2.18-.67,2.18-2.43v-3.8h.65v3.76c0,2.24-1.13,3.05-2.86,3.05s-2.87-.88-2.87-3V48.89Z"/><path class="cls-1" d="M163.67,48.89h2.62a3.13,3.13,0,0,1,3.39,3.23,3.25,3.25,0,0,1-3.4,3.44h-2.61Zm.65,6.1h1.78A2.66,2.66,0,0,0,169,52.14a2.57,2.57,0,0,0-2.79-2.68h-1.88Z"/><path class="cls-1" d="M171.62,48.89h2.62a3.13,3.13,0,0,1,3.39,3.23,3.25,3.25,0,0,1-3.4,3.44h-2.61Zm.65,6.1h1.78a2.66,2.66,0,0,0,2.89-2.85,2.57,2.57,0,0,0-2.79-2.68h-1.88Z"/><path class="cls-1" d="M179.72,53.65a2.08,2.08,0,0,0,2.3,1.49c1.43,0,2-.59,2-1.3s-.39-1.2-2.25-1.52-2.38-.89-2.38-1.8c0-1.11,1-1.77,2.44-1.77,2.12,0,2.58,1.11,2.66,1.74h-.67c-.15-.5-.46-1.18-2-1.18-1.05,0-1.76.37-1.76,1.14,0,.62.27,1,1.9,1.3,2.35.39,2.74,1.13,2.74,2S183.9,55.7,182,55.7s-2.72-.81-2.94-2.05Z"/></g></g></svg>